<svg width="58" height="54" viewBox="0 0 58 54" fill="none" xmlns="http://www.w3.org/2000/svg">
<g filter="url(#filter0_d)">
<path d="M49.2486 35.2742L34.5144 6.43202L32.8568 4.92176L31.4939 4.11138L28.0682 3.11682L23.4638 4.11138L20.4801 6.43202L25.4161 16.1934L34.9196 35.2742H49.2486Z" fill="url(#paint0_linear)"/>
</g>
<g filter="url(#filter1_d)">
<path d="M9.57129 18.7479L24.3526 47.566L26.0127 49.0736L27.3769 49.8817L30.8042 50.8707L35.407 49.8686L38.3869 47.5431L33.435 37.7897L23.9003 18.7245L9.57129 18.7479Z" fill="url(#paint1_linear)"/>
</g>
<g filter="url(#filter2_d)">
<path d="M15.2922 6.26435L1 34.9592H15.2922L29.8054 6.26435C31.2733 3.94531 32.3454 4.19223 34.5203 6.26435C27.0943 -5.08099 18.6074 1.53712 15.2922 6.26435Z" fill="url(#paint2_linear)"/>
</g>
<g filter="url(#filter3_d)">
<path d="M42.8719 46.6399L57.1172 17.9217L42.825 17.945L28.3587 46.6636C26.8946 48.985 25.8221 48.7398 23.6438 46.6713C31.0884 58.0045 39.5644 51.3725 42.8719 46.6399Z" fill="url(#paint3_linear)"/>
</g>
<defs>
<filter id="filter0_d" x="20.1854" y="3.11682" width="29.3579" height="33.1888" filterUnits="userSpaceOnUse" color-interpolation-filters="sRGB">
<feFlood flood-opacity="0" result="BackgroundImageFix"/>
<feColorMatrix in="SourceAlpha" type="matrix" values="0 0 0 0 0 0 0 0 0 0 0 0 0 0 0 0 0 0 127 0"/>
<feOffset dy="0.73671"/>
<feGaussianBlur stdDeviation="0.147342"/>
<feColorMatrix type="matrix" values="0 0 0 0 0 0 0 0 0 0 0 0 0 0 0 0 0 0 0.25 0"/>
<feBlend mode="normal" in2="BackgroundImageFix" result="effect1_dropShadow"/>
<feBlend mode="normal" in="SourceGraphic" in2="effect1_dropShadow" result="shape"/>
</filter>
<filter id="filter1_d" x="9.2766" y="18.7245" width="29.405" height="33.1776" filterUnits="userSpaceOnUse" color-interpolation-filters="sRGB">
<feFlood flood-opacity="0" result="BackgroundImageFix"/>
<feColorMatrix in="SourceAlpha" type="matrix" values="0 0 0 0 0 0 0 0 0 0 0 0 0 0 0 0 0 0 127 0"/>
<feOffset dy="0.73671"/>
<feGaussianBlur stdDeviation="0.147342"/>
<feColorMatrix type="matrix" values="0 0 0 0 0 0 0 0 0 0 0 0 0 0 0 0 0 0 0.25 0"/>
<feBlend mode="normal" in2="BackgroundImageFix" result="effect1_dropShadow"/>
<feBlend mode="normal" in="SourceGraphic" in2="effect1_dropShadow" result="shape"/>
</filter>
<filter id="filter2_d" x="0.705316" y="0" width="34.1097" height="35.9906" filterUnits="userSpaceOnUse" color-interpolation-filters="sRGB">
<feFlood flood-opacity="0" result="BackgroundImageFix"/>
<feColorMatrix in="SourceAlpha" type="matrix" values="0 0 0 0 0 0 0 0 0 0 0 0 0 0 0 0 0 0 127 0"/>
<feOffset dy="0.73671"/>
<feGaussianBlur stdDeviation="0.147342"/>
<feColorMatrix type="matrix" values="0 0 0 0 0 0 0 0 0 0 0 0 0 0 0 0 0 0 0.25 0"/>
<feBlend mode="normal" in2="BackgroundImageFix" result="effect1_dropShadow"/>
<feBlend mode="normal" in="SourceGraphic" in2="effect1_dropShadow" result="shape"/>
</filter>
<filter id="filter3_d" x="23.3491" y="17.9216" width="34.0628" height="36.0303" filterUnits="userSpaceOnUse" color-interpolation-filters="sRGB">
<feFlood flood-opacity="0" result="BackgroundImageFix"/>
<feColorMatrix in="SourceAlpha" type="matrix" values="0 0 0 0 0 0 0 0 0 0 0 0 0 0 0 0 0 0 127 0"/>
<feOffset dy="0.73671"/>
<feGaussianBlur stdDeviation="0.147342"/>
<feColorMatrix type="matrix" values="0 0 0 0 0 0 0 0 0 0 0 0 0 0 0 0 0 0 0.25 0"/>
<feBlend mode="normal" in2="BackgroundImageFix" result="effect1_dropShadow"/>
<feBlend mode="normal" in="SourceGraphic" in2="effect1_dropShadow" result="shape"/>
</filter>
<linearGradient id="paint0_linear" x1="20.0718" y1="19.1955" x2="49.2486" y2="19.1955" gradientUnits="userSpaceOnUse">
<stop stop-color="#5FC3E4"/>
<stop offset="1" stop-color="#E55D87"/>
</linearGradient>
<linearGradient id="paint1_linear" x1="38.7744" y1="34.7789" x2="9.59756" y2="34.8266" gradientUnits="userSpaceOnUse">
<stop stop-color="#5FC3E4"/>
<stop offset="1" stop-color="#E55D87"/>
</linearGradient>
<linearGradient id="paint2_linear" x1="0.524275" y1="17.4796" x2="34.5203" y2="17.4796" gradientUnits="userSpaceOnUse">
<stop stop-color="#5FC3E4"/>
<stop offset="1" stop-color="#E55D87"/>
</linearGradient>
<linearGradient id="paint3_linear" x1="57.6215" y1="35.4005" x2="23.6255" y2="35.456" gradientUnits="userSpaceOnUse">
<stop stop-color="#5FC3E4"/>
<stop offset="1" stop-color="#E55D87"/>
</linearGradient>
</defs>
</svg>
